<?xml version="1.0" encoding="UTF-8"?>
<!DOCTYPE svg PUBLIC "-//W3C//DTD SVG 1.1//EN" "http://www.w3.org/Graphics/SVG/1.1/DTD/svg11.dtd">
<svg xmlns="http://www.w3.org/2000/svg" version="1.1" width="240px" height="39px" style="shape-rendering:geometricPrecision; text-rendering:geometricPrecision; image-rendering:optimizeQuality; fill-rule:evenodd; clip-rule:evenodd" xmlns:xlink="http://www.w3.org/1999/xlink">
<g><path style="opacity:0.936" fill="#fffbfd" d="M 21.5,-0.5 C 25.1667,-0.5 28.8333,-0.5 32.5,-0.5C 36.8063,-0.113465 40.6396,1.5532 44,4.5C 44.2734,6.10119 44.7734,7.60119 45.5,9C 44.7871,14.1432 43.9537,19.3098 43,24.5C 41.1127,26.886 38.6127,28.0527 35.5,28C 29.5,28.3333 23.5,28.6667 17.5,29C 14.9491,32.0444 12.6158,35.2111 10.5,38.5C 9.5,38.5 8.5,38.5 7.5,38.5C 6.57734,34.9359 6.24401,31.2693 6.5,27.5C 3.81198,27.8342 1.47865,27.1675 -0.5,25.5C -0.5,19.1667 -0.5,12.8333 -0.5,6.5C 0.626561,5.87833 1.62656,5.04499 2.5,4C 8.89018,2.16005 15.2235,0.66005 21.5,-0.5 Z M 17.5,3.5 C 24.9059,3.15199 32.2392,3.65199 39.5,5C 41.0591,6.99577 41.7258,9.3291 41.5,12C 41.6305,16.3669 40.6305,20.3669 38.5,24C 30.8467,24.8195 23.1801,25.4861 15.5,26C 13.3002,28.2336 11.4669,30.7336 10,33.5C 9.66667,30.8333 9.33333,28.1667 9,25.5C 7,24.8333 5,24.1667 3,23.5C 2.33333,18.5 2.33333,13.5 3,8.5C 7.70031,6.28788 12.5336,4.62121 17.5,3.5 Z"/></g>
<g><path style="opacity:1" fill="#fafafb" d="M 146.5,-0.5 C 149.5,-0.5 152.5,-0.5 155.5,-0.5C 156.645,11.7577 156.812,24.0911 156,36.5C 155.283,37.0442 154.783,37.7109 154.5,38.5C 152.5,38.5 150.5,38.5 148.5,38.5C 146.702,34.8861 144.702,34.8861 142.5,38.5C 139.833,38.5 137.167,38.5 134.5,38.5C 124.28,31.9848 122.113,23.3181 128,12.5C 133.565,6.94025 139.565,6.27358 146,10.5C 146.499,6.84841 146.665,3.18174 146.5,-0.5 Z M 137.5,16.5 C 145.845,16.6908 148.178,20.5241 144.5,28C 136.735,30.575 133.568,27.7416 135,19.5C 136.045,18.6266 136.878,17.6266 137.5,16.5 Z"/></g>
<g><path style="opacity:1" fill="#fcfcfc" d="M 182.5,-0.5 C 185.5,-0.5 188.5,-0.5 191.5,-0.5C 191.814,12.5794 191.48,25.5794 190.5,38.5C 188.167,38.5 185.833,38.5 183.5,38.5C 182.336,35.1584 180.669,35.1584 178.5,38.5C 175.833,38.5 173.167,38.5 170.5,38.5C 160.235,32.6537 157.735,24.3204 163,13.5C 167.862,7.42128 173.695,6.08794 180.5,9.5C 181.24,6.13373 181.907,2.8004 182.5,-0.5 Z M 172.5,16.5 C 178.641,15.8159 181.808,18.4826 182,24.5C 180.287,29.038 177.12,30.538 172.5,29C 168.565,24.8372 168.565,20.6705 172.5,16.5 Z"/></g>
<g><path style="opacity:1" fill="#fcfdfd" d="M 196.5,-0.5 C 199.5,-0.5 202.5,-0.5 205.5,-0.5C 206.833,12.5 206.833,25.5 205.5,38.5C 202.833,38.5 200.167,38.5 197.5,38.5C 196.52,25.5794 196.186,12.5794 196.5,-0.5 Z"/></g>
<g><path style="opacity:1" fill="#fefefe" d="M 85.5,38.5 C 82.8333,38.5 80.1667,38.5 77.5,38.5C 76.559,33.9296 76.2256,29.263 76.5,24.5C 73.1667,24.5 69.8333,24.5 66.5,24.5C 66.7744,29.263 66.441,33.9296 65.5,38.5C 62.8333,38.5 60.1667,38.5 57.5,38.5C 56.3561,26.9093 56.1894,15.2426 57,3.5C 60,2.16667 63,2.16667 66,3.5C 66.4986,7.15159 66.6653,10.8183 66.5,14.5C 69.8333,14.5 73.1667,14.5 76.5,14.5C 76.1774,10.774 76.5108,7.10728 77.5,3.5C 80.3659,2.20537 83.1993,2.20537 86,3.5C 86.8106,15.2426 86.6439,26.9093 85.5,38.5 Z"/></g>
<g><path style="opacity:1" fill="#fcfcfd" d="M 119.5,38.5 C 117.833,38.5 116.167,38.5 114.5,38.5C 112.702,34.8861 110.702,34.8861 108.5,38.5C 105.833,38.5 103.167,38.5 100.5,38.5C 96.6133,36.7659 94.1133,33.7659 93,29.5C 92.3333,22.5 92.3333,15.5 93,8.5C 96.24,6.96367 99.24,7.297 102,9.5C 102.333,15.5 102.667,21.5 103,27.5C 106.571,30.5327 109.238,29.8661 111,25.5C 111.333,19.8333 111.667,14.1667 112,8.5C 115.24,6.96367 118.24,7.297 121,9.5C 121.667,18.5 121.667,27.5 121,36.5C 120.283,37.0442 119.783,37.7109 119.5,38.5 Z"/></g>
<g><path style="opacity:1" fill="#fdfdfd" d="M 239.5,17.5 C 239.5,20.1667 239.5,22.8333 239.5,25.5C 232.913,26.2953 226.246,26.7953 219.5,27C 223.525,31.1986 227.858,31.3653 232.5,27.5C 235.099,28.899 236.599,30.899 237,33.5C 235.035,35.5503 232.868,37.217 230.5,38.5C 227.5,38.5 224.5,38.5 221.5,38.5C 210.857,33.5373 207.69,25.5373 212,14.5C 217.946,7.13612 225.112,5.63612 233.5,10C 236.121,12.1141 238.121,14.6141 239.5,17.5 Z M 223.5,15.5 C 225.842,15.5041 227.842,16.3375 229.5,18C 226.5,18.6667 223.5,18.6667 220.5,18C 221.571,17.1482 222.571,16.3149 223.5,15.5 Z"/></g>
<g><path style="opacity:0.951" fill="#fff7fc" d="M 11.5,9.5 C 16.3284,10.6411 17.3284,13.1411 14.5,17C 11.4691,18.0748 9.4691,17.0748 8.5,14C 9.38619,12.3853 10.3862,10.8853 11.5,9.5 Z"/></g>
<g><path style="opacity:0.954" fill="#fffafc" d="M 21.5,9.5 C 25.3958,10.7805 26.3958,13.2805 24.5,17C 19.8996,18.5833 18.0663,17.0833 19,12.5C 19.6979,11.3094 20.5313,10.3094 21.5,9.5 Z"/></g>
<g><path style="opacity:0.928" fill="#fff8fd" d="M 29.5,10.5 C 34.6752,9.5071 36.5086,11.5071 35,16.5C 31.7358,19.3036 29.2358,18.6369 27.5,14.5C 28.1799,13.1401 28.8466,11.8068 29.5,10.5 Z"/></g>
</svg>
